<svg width="37" height="38" viewBox="0 0 37 38" fill="none" xmlns="http://www.w3.org/2000/svg">
<path d="M18.3535 0V2.66379C27.1839 2.66379 34.3362 9.81605 34.3362 18.6465C34.3362 27.477 27.1839 34.6292 18.3535 34.6292V37.293C28.649 37.293 37 28.942 37 18.6465C37 8.35097 28.649 0 18.3535 0ZM8.018 30.82L6.29986 32.8578C7.93808 34.243 9.81605 35.3484 11.8672 36.1076L12.7729 33.6037C11.0148 32.951 9.40317 32.0054 8.00468 30.82H8.018ZM2.62383 21.3103L0 21.8564C0.37293 24.0274 1.11879 26.0652 2.1843 27.9032L4.48848 26.6379C3.58279 25.0662 2.94348 23.1616 2.62383 21.3103ZM4.48848 10.6551L2.1843 9.32325C1.13211 11.1613 0.386249 13.2657 0 15.4366L2.62383 15.9028C2.94348 14.0515 3.58279 12.2401 4.48848 10.6685V10.6551ZM12.7862 3.67603L11.8805 1.17207C9.82937 1.93125 7.9514 3.03672 6.31317 4.42189L8.03132 6.45968C9.4298 5.2743 11.0414 4.32865 12.7995 3.67603H12.7862Z" fill="black"/>
<path d="M25.013 13.3189V10.6551H19.6854V6.65942H17.0216V10.6551H14.3578C12.8888 10.6551 11.6941 11.8498 11.6941 13.3189V17.3146C11.6941 18.7836 12.8888 19.9784 14.3578 19.9784H22.3492V23.974H11.6941V26.6378H17.0216V30.6335H19.6854V26.6378H22.3492C23.8183 26.6378 25.013 25.4431 25.013 23.974V19.9784C25.013 18.5093 23.8183 17.3146 22.3492 17.3146H14.3578V13.3189H25.013Z" fill="black"/>
</svg>
