<svg width="39" height="40" viewBox="0 0 39 40" fill="none" xmlns="http://www.w3.org/2000/svg">
<path d="M37 9.3935H29.5613C29.4846 9.3935 29.4087 9.378 29.3379 9.34789C29.2672 9.31777 29.2029 9.27364 29.1488 9.21802C29.0947 9.1624 29.0519 9.09639 29.0228 9.02379C28.9937 8.95118 28.9789 8.87341 28.9793 8.79493C28.9801 8.65051 29.0309 8.51106 29.1228 8.40143L34.4284 2.19401C34.4798 2.13246 34.5438 2.08319 34.6158 2.04968C34.6878 2.01616 34.7662 1.99922 34.8453 2.00003C35.1484 2.00003 35.3948 2.25498 35.3948 2.56535V11.8571M24.5074 11.8543H18.0919V10.4549C18.0926 9.97608 18.2294 9.50784 18.4856 9.10729C18.7418 8.70673 19.1063 8.39118 19.5347 8.19913L23.1079 6.60017C23.6024 6.37978 24.0075 5.99162 24.2549 5.50112C24.5024 5.01062 24.5771 4.44777 24.4664 3.90746C24.3558 3.36714 24.0666 2.8824 23.6475 2.53494C23.2284 2.18749 22.7052 1.99857 22.1659 2.00003H20.4984C20.0008 2.00059 19.5156 2.15887 19.1094 2.45311C18.7033 2.74736 18.396 3.16314 18.23 3.64333M20.8693 36.8087C22.2726 37.7337 23.9428 38.1391 25.6024 37.9577C27.262 37.7762 28.811 37.0186 29.9917 35.811L31.0203 34.758C31.4766 34.2859 31.7325 33.6486 31.7325 32.9845C31.7325 32.3203 31.4766 31.683 31.0203 31.2109L26.6892 26.8047C26.2326 26.3394 25.6146 26.0781 24.9703 26.0781C24.326 26.0781 23.708 26.3394 23.2514 26.8047C22.7902 27.2718 22.1677 27.5338 21.5189 27.5338C20.8702 27.5338 20.2477 27.2718 19.7865 26.8047L12.8838 19.7383C12.4275 19.2662 12.1716 18.6288 12.1716 17.9647C12.1716 17.3006 12.4275 16.6633 12.8838 16.1912C13.3383 15.7238 13.5936 15.0911 13.5936 14.4315C13.5936 13.7719 13.3383 13.1392 12.8838 12.6718L8.71506 8.23793C8.25388 7.77085 7.63134 7.50888 6.98261 7.50888C6.33388 7.50888 5.71134 7.77085 5.25016 8.23793L4.22152 9.29097C3.02073 10.4827 2.25549 12.0599 2.05351 13.7595C1.85153 15.459 2.22503 17.1781 3.11167 18.6298C7.83028 25.8051 13.8603 31.9781 20.8693 36.8087Z" stroke="black" stroke-width="3" stroke-linecap="round" stroke-linejoin="round"/>
</svg>
