<svg width="43" height="43" viewBox="0 0 43 43" fill="none" xmlns="http://www.w3.org/2000/svg">
<path d="M11.7498 9.8V7.85C11.7498 5.0927 11.7498 3.71405 12.6078 2.858C13.4619 2 14.8406 2 17.5999 2H25.4001C28.1575 2 29.5361 2 30.3922 2.858C31.2502 3.7121 31.2502 5.09075 31.2502 7.85V9.8C31.2502 12.5573 31.2502 13.936 30.3922 14.792C29.5381 15.65 28.1594 15.65 25.4001 15.65H23.45L17.5999 19.55V15.65C14.8425 15.65 13.4638 15.65 12.6078 14.792C11.7498 13.9379 11.7498 12.5593 11.7498 9.8ZM5.10009 34.643C3.87351 35.4659 0.659824 37.1429 2.61767 39.2411C3.5732 40.2668 4.63987 41 5.97761 41H13.6218C14.9595 41 16.0262 40.2668 16.9817 39.2411C18.9396 37.1429 15.7259 35.4659 14.4993 34.6449C13.1129 33.7035 11.4756 33.2002 9.7997 33.2002C8.12381 33.2002 6.48654 33.7016 5.10009 34.643ZM28.5007 34.643C27.2741 35.4659 24.0604 37.1429 26.0183 39.2411C26.9738 40.2668 28.0405 41 29.3782 41H37.0224C38.3601 41 39.4268 40.2668 40.3823 39.2411C42.3402 37.1429 39.1265 35.4659 37.8999 34.6449C36.5135 33.7035 34.8762 33.2002 33.2003 33.2002C31.5244 33.2002 29.8871 33.7016 28.5007 34.643ZM13.6998 24.425C13.6998 25.4593 13.2889 26.4513 12.5575 27.1827C11.8261 27.9141 10.8341 28.325 9.7997 28.325C8.76533 28.325 7.77333 27.9141 7.04192 27.1827C6.31051 26.4513 5.89961 25.4593 5.89961 24.425C5.89961 23.3907 6.31051 22.3987 7.04192 21.6673C7.77333 20.9359 8.76533 20.525 9.7997 20.525C10.8341 20.525 11.8261 20.9359 12.5575 21.6673C13.2889 22.3987 13.6998 23.3907 13.6998 24.425ZM37.1004 24.425C37.1004 25.4593 36.6895 26.4513 35.9581 27.1827C35.2267 27.9141 34.2347 28.325 33.2003 28.325C32.1659 28.325 31.1739 27.9141 30.4425 27.1827C29.7111 26.4513 29.3002 25.4593 29.3002 24.425C29.3002 23.3907 29.7111 22.3987 30.4425 21.6673C31.1739 20.9359 32.1659 20.525 33.2003 20.525C34.2347 20.525 35.2267 20.9359 35.9581 21.6673C36.6895 22.3987 37.1004 23.3907 37.1004 24.425Z" stroke="black" stroke-width="3.5" stroke-linecap="round" stroke-linejoin="round"/>
</svg>
