<svg width="41" height="38" viewBox="0 0 41 38" fill="none" xmlns="http://www.w3.org/2000/svg">
<path d="M36 20.5455C36 17.4888 35.0936 14.5009 33.3955 11.9594C31.6973 9.41788 29.2836 7.43703 26.4597 6.26732C23.6357 5.0976 20.5283 4.79155 17.5304 5.38786C14.5326 5.98418 11.7788 7.45608 9.61746 9.61744C7.4561 11.7788 5.9842 14.5325 5.38788 17.5304C4.79156 20.5283 5.09762 23.6357 6.26733 26.4597C7.43705 29.2836 9.4179 31.6973 11.9594 33.3954C14.5009 35.0936 17.4889 36 20.5455 36C24.6443 36 28.5752 34.3718 31.4735 31.4735C34.3718 28.5752 36 24.6443 36 20.5455ZM9.53894 3.08278C8.72794 2.3888 7.697 2.00511 6.62962 2L6.36013 2.00773C3.89223 2.15648 1.99326 4.31818 2.00002 6.92614C2.00002 8.2021 2.45013 8.7971 3.05093 9.55631C3.08825 9.60509 3.13538 9.64551 3.18928 9.67496C3.24319 9.70441 3.30267 9.72223 3.36388 9.72727H3.44888C3.49674 9.72642 3.54376 9.71456 3.58631 9.69262C3.62885 9.67067 3.66578 9.63924 3.69422 9.60074L9.56405 3.83523C9.61417 3.78454 9.65333 3.72408 9.67908 3.65761C9.70484 3.59115 9.71665 3.52009 9.71377 3.44886C9.71133 3.37911 9.69456 3.3106 9.66448 3.24762C9.6344 3.18463 9.59166 3.12852 9.53894 3.08278ZM31.5385 3.08278C32.3495 2.3888 33.3804 2.00511 34.4478 2L34.7173 2.00773C37.1852 2.15648 39.0842 4.31818 39.0774 6.92614C39.0774 8.2021 38.6273 8.7971 38.0265 9.55631C37.9891 9.60491 37.9419 9.64515 37.888 9.67443C37.8341 9.70371 37.7747 9.72138 37.7135 9.72631H37.6285C37.5807 9.72545 37.5337 9.71359 37.4911 9.69165C37.4486 9.66971 37.4116 9.63827 37.3832 9.59977L31.5134 3.83523C31.4632 3.78454 31.4241 3.72408 31.3983 3.65761C31.3726 3.59115 31.3608 3.52009 31.3637 3.44886C31.3661 3.37911 31.3829 3.3106 31.4129 3.24762C31.443 3.18463 31.4858 3.12852 31.5385 3.08278Z" stroke="black" stroke-width="3" stroke-miterlimit="10"/>
<path d="M20.5454 9.72729V20.5455H12.8182M36 36L32.1363 32.1364M5.09088 36L8.95452 32.1364" stroke="black" stroke-width="3" stroke-linecap="round" stroke-linejoin="round"/>
</svg>
