<svg width="37" height="33" viewBox="0 0 37 33" fill="none" xmlns="http://www.w3.org/2000/svg">
<path d="M18.5 33C17.9758 33 17.5368 32.824 17.1828 32.472C16.8288 32.12 16.6512 31.6849 16.65 31.1667C16.6488 30.6484 16.8264 30.2133 17.1828 29.8613C17.5392 29.5093 17.9783 29.3333 18.5 29.3333H31.45V16.3167C31.45 12.7417 30.1938 9.70933 27.6815 7.21967C25.1692 4.73 22.1087 3.48456 18.5 3.48333C14.8913 3.48211 11.8314 4.72756 9.3203 7.21967C6.80923 9.71178 5.55247 12.7441 5.55 16.3167V25.6667C5.55 26.1861 5.3724 26.6218 5.0172 26.9738C4.662 27.3258 4.22293 27.5012 3.7 27.5C2.6825 27.5 1.81177 27.1413 1.0878 26.4238C0.363833 25.7064 0.00123333 24.8429 0 23.8333V20.1667C0 19.525 0.162183 18.9218 0.48655 18.3572C0.810917 17.7925 1.2654 17.3415 1.85 17.0042L1.98875 14.575C2.23542 12.4972 2.84468 10.5722 3.81655 8.8C4.78842 7.02778 6.00633 5.48472 7.4703 4.17083C8.93427 2.85694 10.6141 1.83333 12.5097 1.1C14.4053 0.366666 16.4021 0 18.5 0C20.5979 0 22.5866 0.366666 24.4662 1.1C26.3458 1.83333 28.0263 2.84961 29.5075 4.14883C30.9887 5.44805 32.2066 6.98317 33.1612 8.75417C34.1158 10.5252 34.7325 12.4502 35.0112 14.5292L35.15 16.9125C35.7358 17.1875 36.1909 17.6 36.5153 18.15C36.8397 18.7 37.0012 19.2806 37 19.8917V24.1083C37 24.7194 36.8384 25.3 36.5153 25.85C36.1922 26.4 35.7371 26.8125 35.15 27.0875V29.3333C35.15 30.3417 34.788 31.2052 34.064 31.9238C33.3401 32.6425 32.4687 33.0012 31.45 33H18.5ZM12.95 20.1667C12.4258 20.1667 11.9868 19.9907 11.6328 19.6387C11.2788 19.2867 11.1012 18.8516 11.1 18.3333C11.0988 17.8151 11.2764 17.38 11.6328 17.028C11.9892 16.676 12.4283 16.5 12.95 16.5C13.4717 16.5 13.9114 16.676 14.269 17.028C14.6267 17.38 14.8037 17.8151 14.8 18.3333C14.7963 18.8516 14.6187 19.2873 14.2672 19.6405C13.9157 19.9937 13.4766 20.1691 12.95 20.1667ZM24.05 20.1667C23.5258 20.1667 23.0868 19.9907 22.7328 19.6387C22.3788 19.2867 22.2012 18.8516 22.2 18.3333C22.1988 17.8151 22.3764 17.38 22.7328 17.028C23.0892 16.676 23.5283 16.5 24.05 16.5C24.5717 16.5 25.0114 16.676 25.369 17.028C25.7267 17.38 25.9037 17.8151 25.9 18.3333C25.8963 18.8516 25.7187 19.2873 25.3672 19.6405C25.0157 19.9937 24.5766 20.1691 24.05 20.1667ZM7.44625 17.325C7.23042 14.0861 8.21708 11.3056 10.4062 8.98333C12.5954 6.66111 15.3242 5.5 18.5925 5.5C21.3367 5.5 23.7497 6.36289 25.8315 8.08867C27.9134 9.81444 29.1696 12.023 29.6 14.7143C26.7942 14.6826 24.2122 13.9333 21.854 12.4667C19.4959 11 17.6841 9.01389 16.4187 6.50833C15.9254 8.95278 14.8851 11.1302 13.2978 13.0405C11.7105 14.9508 9.75998 16.379 7.44625 17.325Z" fill="black"/>
</svg>
