<svg width="39" height="39" viewBox="0 0 39 39" fill="none" xmlns="http://www.w3.org/2000/svg">
<path d="M11.625 23.875H5.5C4.57174 23.875 3.6815 24.2437 3.02513 24.9001C2.36875 25.5565 2 26.4467 2 27.375V33.5C2 34.4283 2.36875 35.3185 3.02513 35.9749C3.6815 36.6312 4.57174 37 5.5 37H11.625C12.5533 37 13.4435 36.6312 14.0999 35.9749C14.7563 35.3185 15.125 34.4283 15.125 33.5V27.375C15.125 26.4467 14.7563 25.5565 14.0999 24.9001C13.4435 24.2437 12.5533 23.875 11.625 23.875ZM33.5 2H27.375C26.4467 2 25.5565 2.36875 24.9001 3.02513C24.2437 3.6815 23.875 4.57174 23.875 5.5V11.625C23.875 12.5533 24.2437 13.4435 24.9001 14.0999C25.5565 14.7563 26.4467 15.125 27.375 15.125H33.5C34.4283 15.125 35.3185 14.7563 35.9749 14.0999C36.6312 13.4435 37 12.5533 37 11.625V5.5C37 4.57174 36.6312 3.6815 35.9749 3.02513C35.3185 2.36875 34.4283 2 33.5 2Z" fill="black" fill-opacity="0.16"/>
<path d="M23.875 30.4375H37M30.4375 37V23.875M5.5 2H11.625C12.0846 2 12.5398 2.09053 12.9644 2.26642C13.389 2.44231 13.7749 2.70012 14.0999 3.02513C14.4249 3.35013 14.6827 3.73597 14.8586 4.16061C15.0345 4.58525 15.125 5.04037 15.125 5.5V11.625C15.125 12.0846 15.0345 12.5398 14.8586 12.9644C14.6827 13.389 14.4249 13.7749 14.0999 14.0999C13.7749 14.4249 13.389 14.6827 12.9644 14.8586C12.5398 15.0345 12.0846 15.125 11.625 15.125H5.5C4.57174 15.125 3.6815 14.7563 3.02513 14.0999C2.36875 13.4435 2 12.5533 2 11.625V5.5C2 4.57174 2.36875 3.6815 3.02513 3.02513C3.6815 2.36875 4.57174 2 5.5 2ZM5.5 23.875H11.625C12.5533 23.875 13.4435 24.2437 14.0999 24.9001C14.7563 25.5565 15.125 26.4467 15.125 27.375V33.5C15.125 34.4283 14.7563 35.3185 14.0999 35.9749C13.4435 36.6312 12.5533 37 11.625 37H5.5C4.57174 37 3.6815 36.6312 3.02513 35.9749C2.36875 35.3185 2 34.4283 2 33.5V27.375C2 26.4467 2.36875 25.5565 3.02513 24.9001C3.6815 24.2437 4.57174 23.875 5.5 23.875ZM27.375 2H33.5C34.4283 2 35.3185 2.36875 35.9749 3.02513C36.6312 3.6815 37 4.57174 37 5.5V11.625C37 12.5533 36.6312 13.4435 35.9749 14.0999C35.3185 14.7563 34.4283 15.125 33.5 15.125H27.375C26.4467 15.125 25.5565 14.7563 24.9001 14.0999C24.2437 13.4435 23.875 12.5533 23.875 11.625V5.5C23.875 4.57174 24.2437 3.6815 24.9001 3.02513C25.5565 2.36875 26.4467 2 27.375 2Z" stroke="black" stroke-width="2.5" stroke-miterlimit="10" stroke-linecap="round" stroke-linejoin="round"/>
</svg>
