<svg width="13" height="13" viewBox="0 0 13 13" fill="none" xmlns="http://www.w3.org/2000/svg">
<path d="M6.50145 3.16626C4.65694 3.16626 3.16916 4.65404 3.16916 6.49855C3.16916 8.34306 4.65694 9.83084 6.50145 9.83084C8.34596 9.83084 9.83374 8.34306 9.83374 6.49855C9.83374 4.65404 8.34596 3.16626 6.50145 3.16626ZM6.50145 8.66498C5.30948 8.66498 4.33502 7.69342 4.33502 6.49855C4.33502 5.30368 5.30658 4.33213 6.50145 4.33213C7.69632 4.33213 8.66788 5.30368 8.66788 6.49855C8.66788 7.69342 7.69342 8.66498 6.50145 8.66498ZM10.7473 3.02995C10.7473 3.46207 10.3993 3.80719 9.97005 3.80719C9.53793 3.80719 9.19281 3.45917 9.19281 3.02995C9.19281 2.60072 9.54083 2.2527 9.97005 2.2527C10.3993 2.2527 10.7473 2.60072 10.7473 3.02995ZM12.9543 3.8188C12.905 2.77764 12.6672 1.85538 11.9045 1.09554C11.1446 0.335694 10.2224 0.0978806 9.1812 0.0456776C8.10814 -0.0152259 4.89186 -0.0152259 3.8188 0.0456776C2.78054 0.0949805 1.85828 0.332794 1.09554 1.09264C0.332794 1.85248 0.0978806 2.77473 0.0456776 3.8159C-0.0152259 4.88896 -0.0152259 8.10524 0.0456776 9.1783C0.0949805 10.2195 0.332794 11.1417 1.09554 11.9016C1.85828 12.6614 2.77764 12.8992 3.8188 12.9514C4.89186 13.0123 8.10814 13.0123 9.1812 12.9514C10.2224 12.9021 11.1446 12.6643 11.9045 11.9016C12.6643 11.1417 12.9021 10.2195 12.9543 9.1783C13.0152 8.10524 13.0152 4.89186 12.9543 3.8188ZM11.568 10.3297C11.3418 10.8981 10.9039 11.336 10.3326 11.5651C9.47702 11.9045 7.4469 11.8262 6.50145 11.8262C5.556 11.8262 3.52298 11.9016 2.67033 11.5651C2.1019 11.3389 1.66397 10.901 1.43486 10.3297C1.09554 9.47412 1.17384 7.444 1.17384 6.49855C1.17384 5.5531 1.09844 3.52008 1.43486 2.66743C1.66107 2.099 2.099 1.66107 2.67033 1.43196C3.52588 1.09264 5.556 1.17094 6.50145 1.17094C7.4469 1.17094 9.47992 1.09554 10.3326 1.43196C10.901 1.65817 11.3389 2.0961 11.568 2.66743C11.9074 3.52298 11.8291 5.5531 11.8291 6.49855C11.8291 7.444 11.9074 9.47702 11.568 10.3297Z" fill="url(#paint0_linear_263_238)"/>
<defs>
<linearGradient id="paint0_linear_263_238" x1="6.78261" y1="4.23913" x2="0.565218" y2="12.1522" gradientUnits="userSpaceOnUse">
<stop stop-color="#F30004"/>
<stop offset="1" stop-color="#BFFF91"/>
</linearGradient>
</defs>
</svg>
