<svg width="14" height="14" viewBox="0 0 14 14" fill="none" xmlns="http://www.w3.org/2000/svg">
<path d="M3.23153 13.9996H0.355146V4.73686H3.23153V13.9996ZM1.79179 3.47333C0.872015 3.47333 0.125977 2.7115 0.125977 1.79173C0.125977 1.34993 0.301481 0.92622 0.613881 0.61382C0.926282 0.30142 1.34999 0.125916 1.79179 0.125916C2.23359 0.125916 2.65729 0.30142 2.96969 0.61382C3.28209 0.92622 3.4576 1.34993 3.4576 1.79173C3.4576 2.7115 2.71125 3.47333 1.79179 3.47333ZM13.9969 13.9996H11.1267V9.49057C11.1267 8.41595 11.105 7.03784 9.63123 7.03784C8.13574 7.03784 7.90658 8.20536 7.90658 9.41315V13.9996H5.03329V4.73686H7.79199V6.00039H7.83225C8.21626 5.27262 9.15431 4.50459 10.5538 4.50459C13.4649 4.50459 14 6.42156 14 8.91145V13.9996H13.9969Z" fill="#3A51B7"/>
</svg>
